<?xml version="1.0" encoding="utf-8"?>
<!-- Generator: Adobe Illustrator 15.0.0, SVG Export Plug-In . SVG Version: 6.00 Build 0)  -->
<!DOCTYPE svg PUBLIC "-//W3C//DTD SVG 1.1//EN" "http://www.w3.org/Graphics/SVG/1.1/DTD/svg11.dtd">
<svg version="1.1" id="Layer_1" xmlns="http://www.w3.org/2000/svg" xmlns:xlink="http://www.w3.org/1999/xlink" x="0px" y="0px"
	 width="1025px" height="297px" viewBox="0 0 1025 297" enable-background="new 0 0 1025 297" xml:space="preserve">
<rect x="0.5" y="0.5" stroke="#FFFFFF" stroke-miterlimit="10" width="1024" height="296"/>
<g>
	<g>
		<path fill="#FFFFFF" stroke="#FFFFFF" stroke-width="1.0207" stroke-miterlimit="10" d="M59.225,216.124V90.868
			c0-2.347,1.176-3.526,3.53-3.526c2.345,0,3.521,1.18,3.521,3.526v3.411c4.778-4.626,10.431-6.937,16.956-6.937h50.058
			c6.594,0,12.246,2.293,16.945,6.879c4.702,4.592,7.055,10.112,7.055,16.555v39.928c0,6.521-2.37,12.062-7.105,16.609
			c-4.745,4.549-10.38,6.834-16.899,6.834H83.231c-6.603,0-12.255-2.32-16.956-6.944v48.917c0,2.351-1.176,3.529-3.521,3.529
			C60.4,219.655,59.225,218.479,59.225,216.124z M66.275,110.779v39.928c0,4.479,1.652,8.324,4.949,11.549
			c3.297,3.224,7.306,4.834,12.007,4.834h50.058c4.624,0,8.605-1.604,11.948-4.834c3.332-3.216,5.001-7.069,5.001-11.549v-39.928
			c0-4.477-1.644-8.322-4.949-11.55c-3.297-3.218-7.297-4.837-11.996-4.837H83.231c-4.635,0-8.617,1.614-11.949,4.837
			C67.944,102.458,66.275,106.307,66.275,110.779z"/>
		<path fill="#FFFFFF" stroke="#FFFFFF" stroke-width="1.0207" stroke-miterlimit="10" d="M276.978,110.779v39.817
			c0,6.449-2.354,11.968-7.056,16.553c-4.7,4.587-10.352,6.877-16.946,6.877h-50.062c-6.451,0-12.058-2.272-16.837-6.824
			c-4.78-4.548-7.17-10.089-7.17-16.606v-39.821c0-6.522,2.346-12.059,7.046-16.61c4.702-4.552,10.354-6.827,16.957-6.827h50.057
			c6.515,0,12.15,2.275,16.898,6.827C274.606,98.721,276.978,104.258,276.978,110.779z M269.918,110.779
			c0-4.551-1.671-8.418-5.002-11.602c-3.342-3.188-7.324-4.78-11.949-4.78h-50.053c-4.702,0-8.707,1.614-12.007,4.838
			c-3.297,3.222-4.949,7.071-4.949,11.548v39.82c0,4.475,1.672,8.32,5.012,11.545c3.333,3.229,7.313,4.838,11.948,4.838h50.058
			c4.699,0,8.699-1.609,11.995-4.838c3.307-3.221,4.951-7.07,4.951-11.545v-39.825H269.918z"/>
		<path fill="#FFFFFF" stroke="#FFFFFF" stroke-width="1.0207" stroke-miterlimit="10" d="M305.64,90.868v3.301
			c4.702-4.551,10.354-6.828,16.957-6.828h32.989c6.525,0,12.148,2.276,16.896,6.828c4.737,4.552,7.109,10.088,7.109,16.61v59.729
			c0,2.351-1.173,3.527-3.528,3.527c-2.347,0-3.521-1.177-3.521-3.527v-59.729c0-4.551-1.67-8.418-5.014-11.602
			c-3.345-3.184-7.322-4.78-11.951-4.78h-32.984c-4.697,0-8.706,1.614-12.003,4.838c-3.3,3.222-4.954,7.071-4.954,11.548v59.724
			c0,2.354-1.174,3.527-3.52,3.527c-2.354,0-3.531-1.173-3.531-3.527v-79.64c0-2.347,1.177-3.526,3.531-3.526
			C304.467,87.342,305.64,88.521,305.64,90.868z"/>
		<path fill="#FFFFFF" stroke="#FFFFFF" stroke-width="1.0207" stroke-miterlimit="10" d="M397.678,87.342h7.854V65.274
			c0-2.351,1.173-3.531,3.528-3.531c2.347,0,3.528,1.18,3.528,3.531v22.067h21.495c2.356,0,3.529,1.18,3.529,3.526
			c0,2.355-1.173,3.529-3.529,3.529h-21.495v76.111c0,2.351-1.187,3.527-3.528,3.527c-2.355,0-3.532-1.177-3.532-3.527V94.397h-7.85
			c-2.347,0-3.52-1.174-3.52-3.529C394.158,88.521,395.331,87.342,397.678,87.342z"/>
		<path fill="#FFFFFF" stroke="#FFFFFF" stroke-width="1.0207" stroke-miterlimit="10" d="M526.242,174.035h-50.058
			c-6.447,0-12.059-2.278-16.837-6.824c-4.779-4.557-7.169-10.094-7.169-16.615v-39.817c0-6.521,2.343-12.058,7.045-16.61
			c4.696-4.551,10.35-6.828,16.952-6.828h50.059c6.516,0,12.15,2.276,16.9,6.828c4.735,4.552,7.107,10.088,7.107,16.61
			c0,6.449-2.354,11.967-7.053,16.552c-4.701,4.586-10.354,6.879-16.947,6.879h-67.015v16.385c0,4.474,1.671,8.32,5.01,11.544
			c3.332,3.224,7.314,4.838,11.952,4.838h50.053c2.346,0,3.532,1.183,3.532,3.529C529.77,172.858,528.588,174.035,526.242,174.035z
			 M459.228,127.16h67.015c4.701,0,8.701-1.607,11.999-4.836c3.305-3.222,4.948-7.071,4.948-11.548
			c0-4.552-1.669-8.418-5.006-11.603c-3.339-3.188-7.321-4.781-11.949-4.781h-50.059c-4.697,0-8.705,1.614-12.003,4.837
			c-3.296,3.224-4.949,7.074-4.949,11.55v16.381H459.228z"/>
	</g>
	<g>
		<line fill="none" stroke="#FFFFFF" stroke-width="20" stroke-miterlimit="10" x1="610" y1="148" x2="965" y2="148"/>
		<g>
			<path fill="none" stroke="#FFFFFF" stroke-width="20" stroke-miterlimit="10" d="M690.973,220
				c0-79.698,45.318-144.189,101.323-144.189"/>
			<path fill="none" stroke="#FFFFFF" stroke-width="20" stroke-miterlimit="10" d="M888.843,220
				c0-79.698-45.319-144.189-101.323-144.189"/>
		</g>
	</g>
	<g>
		<path fill="#FFFFFF" d="M91.813,202.139c0.973,0.234,1.784,0.709,2.435,1.424s0.976,1.547,0.976,2.496v5.273
			c0,1.137-0.457,2.098-1.371,2.883s-1.992,1.178-3.234,1.178H77.083c-0.363,0-0.545-0.182-0.545-0.545v-19.354
			c0-0.363,0.182-0.545,0.545-0.545H88.86c1.242,0,2.317,0.393,3.226,1.178s1.362,1.752,1.362,2.9
			C93.448,200.281,92.903,201.318,91.813,202.139z M77.628,201.998h11.25c0.984-0.023,1.811-0.328,2.479-0.914
			s1.002-1.271,1.002-2.057c0-0.809-0.337-1.509-1.011-2.101s-1.503-0.888-2.487-0.888H77.628V201.998z M77.628,203.088v11.215
			h12.99c0.984,0,1.816-0.296,2.496-0.888s1.02-1.286,1.02-2.083v-5.273c0-0.797-0.34-1.491-1.02-2.083s-1.512-0.888-2.496-0.888
			H77.628z"/>
		<path fill="#FFFFFF" d="M98.563,214.848v-12.305c0-0.363,0.182-0.545,0.545-0.545s0.545,0.182,0.545,0.545v0.51
			c0.738-0.703,1.611-1.055,2.619-1.055h2.461c0.363,0,0.545,0.182,0.545,0.545s-0.182,0.545-0.545,0.545h-2.461
			c-0.715,0-1.33,0.246-1.846,0.738s-0.773,1.09-0.773,1.793v9.229c0,0.363-0.182,0.545-0.545,0.545S98.563,215.211,98.563,214.848z
			"/>
		<path fill="#FFFFFF" d="M109.269,199.344c0,0.586-0.287,0.879-0.861,0.879c-0.586,0-0.879-0.293-0.879-0.879
			c0-0.574,0.293-0.861,0.879-0.861C108.981,198.482,109.269,198.77,109.269,199.344z M107.862,214.848v-12.305
			c0-0.363,0.182-0.545,0.545-0.545s0.545,0.182,0.545,0.545v12.305c0,0.363-0.182,0.545-0.545,0.545
			S107.862,215.211,107.862,214.848z"/>
		<path fill="#FFFFFF" d="M113.698,202.543v0.51c0.727-0.703,1.6-1.055,2.619-1.055h5.098c1.008,0,1.878,0.352,2.61,1.055
			s1.099,1.559,1.099,2.566v9.229c0,0.363-0.182,0.545-0.545,0.545s-0.545-0.182-0.545-0.545v-9.229
			c0-0.703-0.258-1.301-0.773-1.793s-1.131-0.738-1.846-0.738h-5.098c-0.727,0-1.345,0.249-1.854,0.747s-0.765,1.093-0.765,1.784
			v9.229c0,0.363-0.182,0.545-0.545,0.545s-0.545-0.182-0.545-0.545v-12.305c0-0.363,0.182-0.545,0.545-0.545
			S113.698,202.18,113.698,202.543z"/>
		<path fill="#FFFFFF" d="M143.616,202.543v15.398c0,1.008-0.366,1.863-1.099,2.566s-1.603,1.055-2.61,1.055h-7.734
			c-0.363,0-0.545-0.182-0.545-0.545s0.182-0.545,0.545-0.545h7.734c0.715,0,1.33-0.249,1.846-0.747s0.773-1.093,0.773-1.784v-3.604
			c-0.727,0.715-1.6,1.072-2.619,1.072h-7.734c-0.996,0-1.863-0.352-2.602-1.055s-1.107-1.559-1.107-2.566v-6.152
			c0-1.008,0.363-1.866,1.09-2.575s1.6-1.063,2.619-1.063h7.734c1.02,0,1.893,0.357,2.619,1.072v-0.527
			c0-0.363,0.182-0.545,0.545-0.545S143.616,202.18,143.616,202.543z M142.526,211.789v-6.152c0-0.703-0.258-1.304-0.773-1.802
			s-1.131-0.747-1.846-0.747h-7.734c-0.727,0-1.345,0.249-1.854,0.747s-0.765,1.099-0.765,1.802v6.152
			c0,0.691,0.258,1.286,0.773,1.784s1.131,0.747,1.846,0.747h7.734c0.727,0,1.345-0.249,1.854-0.747S142.526,212.48,142.526,211.789
			z"/>
		<path fill="#FFFFFF" d="M148.696,199.344c0,0.586-0.287,0.879-0.861,0.879c-0.586,0-0.879-0.293-0.879-0.879
			c0-0.574,0.293-0.861,0.879-0.861C148.409,198.482,148.696,198.77,148.696,199.344z M147.29,214.848v-12.305
			c0-0.363,0.182-0.545,0.545-0.545s0.545,0.182,0.545,0.545v12.305c0,0.363-0.182,0.545-0.545,0.545S147.29,215.211,147.29,214.848
			z"/>
		<path fill="#FFFFFF" d="M153.126,202.543v0.51c0.727-0.703,1.6-1.055,2.619-1.055h5.098c1.008,0,1.878,0.352,2.61,1.055
			s1.099,1.559,1.099,2.566v9.229c0,0.363-0.182,0.545-0.545,0.545s-0.545-0.182-0.545-0.545v-9.229
			c0-0.703-0.258-1.301-0.773-1.793s-1.131-0.738-1.846-0.738h-5.098c-0.727,0-1.345,0.249-1.854,0.747s-0.765,1.093-0.765,1.784
			v9.229c0,0.363-0.182,0.545-0.545,0.545s-0.545-0.182-0.545-0.545v-12.305c0-0.363,0.182-0.545,0.545-0.545
			S153.126,202.18,153.126,202.543z"/>
		<path fill="#FFFFFF" d="M183.044,202.543v15.398c0,1.008-0.366,1.863-1.099,2.566s-1.603,1.055-2.61,1.055h-7.734
			c-0.363,0-0.545-0.182-0.545-0.545s0.182-0.545,0.545-0.545h7.734c0.715,0,1.33-0.249,1.846-0.747s0.773-1.093,0.773-1.784v-3.604
			c-0.727,0.715-1.6,1.072-2.619,1.072h-7.734c-0.996,0-1.863-0.352-2.602-1.055s-1.107-1.559-1.107-2.566v-6.152
			c0-1.008,0.363-1.866,1.09-2.575s1.6-1.063,2.619-1.063h7.734c1.02,0,1.893,0.357,2.619,1.072v-0.527
			c0-0.363,0.182-0.545,0.545-0.545S183.044,202.18,183.044,202.543z M181.954,211.789v-6.152c0-0.703-0.258-1.304-0.773-1.802
			s-1.131-0.747-1.846-0.747h-7.734c-0.727,0-1.345,0.249-1.854,0.747s-0.765,1.099-0.765,1.802v6.152
			c0,0.691,0.258,1.286,0.773,1.784s1.131,0.747,1.846,0.747h7.734c0.727,0,1.345-0.249,1.854-0.747S181.954,212.48,181.954,211.789
			z"/>
		<path fill="#FFFFFF" d="M197.968,201.998h1.213v-3.41c0-0.363,0.182-0.545,0.545-0.545s0.545,0.182,0.545,0.545v3.41h3.322
			c0.363,0,0.545,0.182,0.545,0.545s-0.182,0.545-0.545,0.545h-3.322v11.76c0,0.363-0.182,0.545-0.545,0.545
			s-0.545-0.182-0.545-0.545v-11.76h-1.213c-0.363,0-0.545-0.182-0.545-0.545S197.604,201.998,197.968,201.998z"/>
		<path fill="#FFFFFF" d="M207.478,195.494v7.559c0.727-0.703,1.6-1.055,2.619-1.055h7.734c1.008,0,1.878,0.352,2.61,1.055
			s1.099,1.559,1.099,2.566v9.229c0,0.363-0.182,0.545-0.545,0.545s-0.545-0.182-0.545-0.545v-9.229
			c0-0.703-0.258-1.301-0.773-1.793s-1.131-0.738-1.846-0.738h-7.734c-0.727,0-1.345,0.249-1.854,0.747s-0.765,1.093-0.765,1.784
			v9.229c0,0.363-0.182,0.545-0.545,0.545s-0.545-0.182-0.545-0.545v-19.354c0-0.363,0.182-0.545,0.545-0.545
			S207.478,195.131,207.478,195.494z"/>
		<path fill="#FFFFFF" d="M236.323,215.393h-7.734c-0.996,0-1.863-0.352-2.602-1.055s-1.107-1.559-1.107-2.566v-6.152
			c0-1.008,0.363-1.863,1.09-2.566s1.6-1.055,2.619-1.055h7.734c1.008,0,1.878,0.352,2.61,1.055s1.099,1.559,1.099,2.566
			c0,0.996-0.363,1.849-1.09,2.558s-1.6,1.063-2.619,1.063H225.97v2.531c0,0.691,0.258,1.286,0.773,1.784s1.131,0.747,1.846,0.747
			h7.734c0.363,0,0.545,0.182,0.545,0.545S236.687,215.393,236.323,215.393z M225.97,208.15h10.354c0.727,0,1.345-0.249,1.854-0.747
			s0.765-1.093,0.765-1.784c0-0.703-0.258-1.301-0.773-1.793s-1.131-0.738-1.846-0.738h-7.734c-0.727,0-1.345,0.249-1.854,0.747
			s-0.765,1.093-0.765,1.784V208.15z"/>
		<path fill="#FFFFFF" d="M254.429,194.949h17.596c0.363,0,0.545,0.182,0.545,0.545s-0.182,0.545-0.545,0.545h-8.262v18.809
			c0,0.363-0.182,0.545-0.545,0.545s-0.545-0.182-0.545-0.545v-18.809h-8.244c-0.363,0-0.545-0.182-0.545-0.545
			S254.065,194.949,254.429,194.949z"/>
		<path fill="#FFFFFF" d="M275.909,195.494v7.559c0.727-0.703,1.6-1.055,2.619-1.055h7.734c1.008,0,1.878,0.352,2.61,1.055
			s1.099,1.559,1.099,2.566v9.229c0,0.363-0.182,0.545-0.545,0.545s-0.545-0.182-0.545-0.545v-9.229
			c0-0.703-0.258-1.301-0.773-1.793s-1.131-0.738-1.846-0.738h-7.734c-0.727,0-1.345,0.249-1.854,0.747s-0.765,1.093-0.765,1.784
			v9.229c0,0.363-0.182,0.545-0.545,0.545s-0.545-0.182-0.545-0.545v-19.354c0-0.363,0.182-0.545,0.545-0.545
			S275.909,195.131,275.909,195.494z"/>
		<path fill="#FFFFFF" d="M295.052,199.344c0,0.586-0.287,0.879-0.861,0.879c-0.586,0-0.879-0.293-0.879-0.879
			c0-0.574,0.293-0.861,0.879-0.861C294.765,198.482,295.052,198.77,295.052,199.344z M293.646,214.848v-12.305
			c0-0.363,0.182-0.545,0.545-0.545s0.545,0.182,0.545,0.545v12.305c0,0.363-0.182,0.545-0.545,0.545
			S293.646,215.211,293.646,214.848z"/>
		<path fill="#FFFFFF" d="M299.481,202.543v0.51c0.727-0.703,1.6-1.055,2.619-1.055h5.098c1.008,0,1.878,0.352,2.61,1.055
			s1.099,1.559,1.099,2.566v9.229c0,0.363-0.182,0.545-0.545,0.545s-0.545-0.182-0.545-0.545v-9.229
			c0-0.703-0.258-1.301-0.773-1.793s-1.131-0.738-1.846-0.738h-5.098c-0.727,0-1.345,0.249-1.854,0.747s-0.765,1.093-0.765,1.784
			v9.229c0,0.363-0.182,0.545-0.545,0.545s-0.545-0.182-0.545-0.545v-12.305c0-0.363,0.182-0.545,0.545-0.545
			S299.481,202.18,299.481,202.543z"/>
		<path fill="#FFFFFF" d="M329.399,202.543v15.398c0,1.008-0.366,1.863-1.099,2.566s-1.603,1.055-2.61,1.055h-7.734
			c-0.363,0-0.545-0.182-0.545-0.545s0.182-0.545,0.545-0.545h7.734c0.715,0,1.33-0.249,1.846-0.747s0.773-1.093,0.773-1.784v-3.604
			c-0.727,0.715-1.6,1.072-2.619,1.072h-7.734c-0.996,0-1.863-0.352-2.602-1.055s-1.107-1.559-1.107-2.566v-6.152
			c0-1.008,0.363-1.866,1.09-2.575s1.6-1.063,2.619-1.063h7.734c1.02,0,1.893,0.357,2.619,1.072v-0.527
			c0-0.363,0.182-0.545,0.545-0.545S329.399,202.18,329.399,202.543z M328.31,211.789v-6.152c0-0.703-0.258-1.304-0.773-1.802
			s-1.131-0.747-1.846-0.747h-7.734c-0.727,0-1.345,0.249-1.854,0.747s-0.765,1.099-0.765,1.802v6.152
			c0,0.691,0.258,1.286,0.773,1.784s1.131,0.747,1.846,0.747h7.734c0.727,0,1.345-0.249,1.854-0.747S328.31,212.48,328.31,211.789z"
			/>
		<path fill="#FFFFFF" d="M332.757,214.303h10.898c0.715,0,1.33-0.249,1.846-0.747s0.773-1.093,0.773-1.784
			s-0.255-1.286-0.765-1.784s-1.128-0.747-1.854-0.747h-7.734c-1.02,0-1.893-0.354-2.619-1.063s-1.09-1.562-1.09-2.558
			c0-1.008,0.369-1.863,1.107-2.566s1.605-1.055,2.602-1.055h7.734c0.363,0,0.545,0.182,0.545,0.545s-0.182,0.545-0.545,0.545
			h-7.734c-0.715,0-1.33,0.246-1.846,0.738s-0.773,1.09-0.773,1.793c0,0.691,0.255,1.286,0.765,1.784s1.128,0.747,1.854,0.747h7.734
			c1.02,0,1.893,0.354,2.619,1.063s1.09,1.562,1.09,2.558c0,1.008-0.366,1.863-1.099,2.566s-1.603,1.055-2.61,1.055h-10.898
			c-0.363,0-0.545-0.182-0.545-0.545S332.394,214.303,332.757,214.303z"/>
		<path fill="#FFFFFF" d="M361.761,201.998h1.213v-3.41c0-0.363,0.182-0.545,0.545-0.545s0.545,0.182,0.545,0.545v3.41h3.322
			c0.363,0,0.545,0.182,0.545,0.545s-0.182,0.545-0.545,0.545h-3.322v11.76c0,0.363-0.182,0.545-0.545,0.545
			s-0.545-0.182-0.545-0.545v-11.76h-1.213c-0.363,0-0.545-0.182-0.545-0.545S361.397,201.998,361.761,201.998z"/>
		<path fill="#FFFFFF" d="M385.333,205.619v6.152c0,0.996-0.363,1.849-1.09,2.558s-1.6,1.063-2.619,1.063h-7.734
			c-0.996,0-1.863-0.352-2.602-1.055s-1.107-1.559-1.107-2.566v-6.152c0-1.008,0.363-1.863,1.09-2.566s1.6-1.055,2.619-1.055h7.734
			c1.008,0,1.878,0.352,2.61,1.055S385.333,204.611,385.333,205.619z M384.243,205.619c0-0.703-0.258-1.301-0.773-1.793
			s-1.131-0.738-1.846-0.738h-7.734c-0.727,0-1.345,0.249-1.854,0.747s-0.765,1.093-0.765,1.784v6.152
			c0,0.691,0.258,1.286,0.773,1.784s1.131,0.747,1.846,0.747h7.734c0.727,0,1.345-0.249,1.854-0.747s0.765-1.093,0.765-1.784
			V205.619z"/>
		<path fill="#FFFFFF" d="M413.493,205.707l7.717,8.771c0.094,0.105,0.141,0.223,0.141,0.352c0,0.375-0.188,0.562-0.562,0.562
			c-0.152,0-0.287-0.07-0.404-0.211l-8.35-9.475h-6.645c-0.363,0-0.545-0.182-0.545-0.545s0.182-0.545,0.545-0.545h9.492
			c0.984,0,1.816-0.296,2.496-0.888s1.02-1.286,1.02-2.083v-2.637c0-0.809-0.34-1.509-1.02-2.101s-1.512-0.888-2.496-0.888h-12.99
			v18.809c0,0.363-0.182,0.545-0.545,0.545s-0.545-0.182-0.545-0.545v-19.354c0-0.363,0.182-0.545,0.545-0.545h13.535
			c1.242,0,2.32,0.393,3.234,1.178s1.371,1.752,1.371,2.9v2.637c0,1.137-0.457,2.098-1.371,2.883s-1.992,1.178-3.234,1.178H413.493z
			"/>
		<path fill="#FFFFFF" d="M437.101,196.039h-12.99v5.959h12.99c0.363,0,0.545,0.182,0.545,0.545s-0.182,0.545-0.545,0.545h-12.99
			v11.215h13.922c0.363,0,0.545,0.182,0.545,0.545s-0.182,0.545-0.545,0.545h-14.467c-0.363,0-0.545-0.182-0.545-0.545v-19.354
			c0-0.363,0.182-0.545,0.545-0.545h13.535c0.363,0,0.545,0.182,0.545,0.545S437.464,196.039,437.101,196.039z"/>
		<path fill="#FFFFFF" d="M454.907,196.039h-9.492c-0.973,0-1.799,0.296-2.479,0.888s-1.02,1.286-1.02,2.083v2.637
			c0,0.797,0.34,1.494,1.02,2.092s1.506,0.896,2.479,0.896h9.492c1.242,0,2.32,0.393,3.234,1.178s1.371,1.746,1.371,2.883v2.637
			c0,1.137-0.457,2.098-1.371,2.883s-1.992,1.178-3.234,1.178h-13.535c-0.363,0-0.545-0.182-0.545-0.545s0.182-0.545,0.545-0.545
			h13.535c0.984,0,1.816-0.296,2.496-0.888s1.02-1.286,1.02-2.083v-2.637c0-0.797-0.34-1.491-1.02-2.083s-1.512-0.888-2.496-0.888
			h-9.492c-1.242,0-2.317-0.396-3.226-1.187s-1.362-1.755-1.362-2.892v-2.637c0-1.137,0.454-2.098,1.362-2.883
			s1.983-1.178,3.226-1.178h9.492c0.363,0,0.545,0.182,0.545,0.545S455.271,196.039,454.907,196.039z"/>
		<path fill="#FFFFFF" d="M462.308,194.949h17.596c0.363,0,0.545,0.182,0.545,0.545s-0.182,0.545-0.545,0.545h-8.262v18.809
			c0,0.363-0.182,0.545-0.545,0.545s-0.545-0.182-0.545-0.545v-18.809h-8.244c-0.363,0-0.545-0.182-0.545-0.545
			S461.944,194.949,462.308,194.949z"/>
		<path fill="#FFFFFF" d="M508.907,194.967c1.242,0,2.32,0.393,3.234,1.178s1.371,1.746,1.371,2.883v12.305
			c0,1.137-0.457,2.098-1.371,2.883s-1.992,1.178-3.234,1.178h-13.535c-0.363,0-0.545-0.182-0.545-0.545v-19.336
			c0-0.363,0.182-0.545,0.545-0.545H508.907z M508.907,196.057h-12.99v18.246h12.99c0.984,0,1.816-0.296,2.496-0.888
			s1.02-1.286,1.02-2.083v-12.305c0-0.797-0.34-1.491-1.02-2.083S509.892,196.057,508.907,196.057z"/>
		<path fill="#FFFFFF" d="M528.296,215.393h-7.734c-0.996,0-1.863-0.352-2.602-1.055s-1.107-1.559-1.107-2.566v-6.152
			c0-1.008,0.363-1.863,1.09-2.566s1.6-1.055,2.619-1.055h7.734c1.008,0,1.878,0.352,2.61,1.055s1.099,1.559,1.099,2.566
			c0,0.996-0.363,1.849-1.09,2.558s-1.6,1.063-2.619,1.063h-10.354v2.531c0,0.691,0.258,1.286,0.773,1.784s1.131,0.747,1.846,0.747
			h7.734c0.363,0,0.545,0.182,0.545,0.545S528.659,215.393,528.296,215.393z M517.942,208.15h10.354
			c0.727,0,1.345-0.249,1.854-0.747s0.765-1.093,0.765-1.784c0-0.703-0.258-1.301-0.773-1.793s-1.131-0.738-1.846-0.738h-7.734
			c-0.727,0-1.345,0.249-1.854,0.747s-0.765,1.093-0.765,1.784V208.15z"/>
		<path fill="#FFFFFF" d="M534.782,202.332l4.781,11.145l4.764-11.145c0.094-0.223,0.258-0.334,0.492-0.334
			c0.375,0,0.562,0.182,0.562,0.545c0,0.07-0.018,0.146-0.053,0.229l-5.273,12.305c-0.117,0.281-0.281,0.422-0.492,0.422
			c-0.223,0-0.393-0.141-0.51-0.422l-5.273-12.305c-0.035-0.082-0.053-0.158-0.053-0.229c0-0.363,0.188-0.545,0.562-0.545
			C534.524,201.998,534.688,202.109,534.782,202.332z"/>
		<path fill="#FFFFFF" d="M559.075,215.393h-7.734c-0.996,0-1.863-0.352-2.602-1.055s-1.107-1.559-1.107-2.566v-6.152
			c0-1.008,0.363-1.863,1.09-2.566s1.6-1.055,2.619-1.055h7.734c1.008,0,1.878,0.352,2.61,1.055s1.099,1.559,1.099,2.566
			c0,0.996-0.363,1.849-1.09,2.558s-1.6,1.063-2.619,1.063h-10.354v2.531c0,0.691,0.258,1.286,0.773,1.784s1.131,0.747,1.846,0.747
			h7.734c0.363,0,0.545,0.182,0.545,0.545S559.438,215.393,559.075,215.393z M548.722,208.15h10.354
			c0.727,0,1.345-0.249,1.854-0.747s0.765-1.093,0.765-1.784c0-0.703-0.258-1.301-0.773-1.793s-1.131-0.738-1.846-0.738h-7.734
			c-0.727,0-1.345,0.249-1.854,0.747s-0.765,1.093-0.765,1.784V208.15z"/>
		<path fill="#FFFFFF" d="M565.597,214.848v-19.354c0-0.363,0.182-0.545,0.545-0.545s0.545,0.182,0.545,0.545v19.354
			c0,0.363-0.182,0.545-0.545,0.545S565.597,215.211,565.597,214.848z"/>
		<path fill="#FFFFFF" d="M585.179,205.619v6.152c0,0.996-0.363,1.849-1.09,2.558s-1.6,1.063-2.619,1.063h-7.734
			c-0.996,0-1.863-0.352-2.602-1.055s-1.107-1.559-1.107-2.566v-6.152c0-1.008,0.363-1.863,1.09-2.566s1.6-1.055,2.619-1.055h7.734
			c1.008,0,1.878,0.352,2.61,1.055S585.179,204.611,585.179,205.619z M584.089,205.619c0-0.703-0.258-1.301-0.773-1.793
			s-1.131-0.738-1.846-0.738h-7.734c-0.727,0-1.345,0.249-1.854,0.747s-0.765,1.093-0.765,1.784v6.152
			c0,0.691,0.258,1.286,0.773,1.784s1.131,0.747,1.846,0.747h7.734c0.727,0,1.345-0.249,1.854-0.747s0.765-1.093,0.765-1.784
			V205.619z"/>
		<path fill="#FFFFFF" d="M588.519,221.896v-19.354c0-0.363,0.182-0.545,0.545-0.545s0.545,0.182,0.545,0.545v0.527
			c0.738-0.715,1.611-1.072,2.619-1.072h7.734c1.02,0,1.893,0.354,2.619,1.063s1.09,1.562,1.09,2.558v6.17
			c0,1.008-0.366,1.863-1.099,2.566s-1.603,1.055-2.61,1.055h-7.734c-1.02,0-1.893-0.357-2.619-1.072v7.559
			c0,0.363-0.182,0.545-0.545,0.545S588.519,222.26,588.519,221.896z M589.608,205.619v6.17c0,0.691,0.255,1.286,0.765,1.784
			s1.128,0.747,1.854,0.747h7.734c0.715,0,1.33-0.249,1.846-0.747s0.773-1.093,0.773-1.784v-6.17c0-0.691-0.255-1.286-0.765-1.784
			s-1.128-0.747-1.854-0.747h-7.734c-0.715,0-1.33,0.249-1.846,0.747S589.608,204.928,589.608,205.619z"/>
		<path fill="#FFFFFF" d="M618.454,215.393h-7.734c-0.996,0-1.863-0.352-2.602-1.055s-1.107-1.559-1.107-2.566v-6.152
			c0-1.008,0.363-1.863,1.09-2.566s1.6-1.055,2.619-1.055h7.734c1.008,0,1.878,0.352,2.61,1.055s1.099,1.559,1.099,2.566
			c0,0.996-0.363,1.849-1.09,2.558s-1.6,1.063-2.619,1.063h-10.354v2.531c0,0.691,0.258,1.286,0.773,1.784s1.131,0.747,1.846,0.747
			h7.734c0.363,0,0.545,0.182,0.545,0.545S618.817,215.393,618.454,215.393z M608.101,208.15h10.354
			c0.727,0,1.345-0.249,1.854-0.747s0.765-1.093,0.765-1.784c0-0.703-0.258-1.301-0.773-1.793s-1.131-0.738-1.846-0.738h-7.734
			c-0.727,0-1.345,0.249-1.854,0.747s-0.765,1.093-0.765,1.784V208.15z"/>
		<path fill="#FFFFFF" d="M624.976,214.848v-12.305c0-0.363,0.182-0.545,0.545-0.545s0.545,0.182,0.545,0.545v0.51
			c0.738-0.703,1.611-1.055,2.619-1.055h2.461c0.363,0,0.545,0.182,0.545,0.545s-0.182,0.545-0.545,0.545h-2.461
			c-0.715,0-1.33,0.246-1.846,0.738s-0.773,1.09-0.773,1.793v9.229c0,0.363-0.182,0.545-0.545,0.545
			S624.976,215.211,624.976,214.848z"/>
		<path fill="#FFFFFF" d="M633.958,214.303h10.898c0.715,0,1.33-0.249,1.846-0.747s0.773-1.093,0.773-1.784
			s-0.255-1.286-0.765-1.784s-1.128-0.747-1.854-0.747h-7.734c-1.02,0-1.893-0.354-2.619-1.063s-1.09-1.562-1.09-2.558
			c0-1.008,0.369-1.863,1.107-2.566s1.605-1.055,2.602-1.055h7.734c0.363,0,0.545,0.182,0.545,0.545s-0.182,0.545-0.545,0.545
			h-7.734c-0.715,0-1.33,0.246-1.846,0.738s-0.773,1.09-0.773,1.793c0,0.691,0.255,1.286,0.765,1.784s1.128,0.747,1.854,0.747h7.734
			c1.02,0,1.893,0.354,2.619,1.063s1.09,1.562,1.09,2.558c0,1.008-0.366,1.863-1.099,2.566s-1.603,1.055-2.61,1.055h-10.898
			c-0.363,0-0.545-0.182-0.545-0.545S633.595,214.303,633.958,214.303z"/>
	</g>
</g>
</svg>
